<svg xmlns="http://www.w3.org/2000/svg" viewBox="0 0 28 20" role="img" aria-label="NZ"><rect width="28" height="20" fill="#012169"/><g transform="scale(.5)"><path d="M0 0l28 20M28 0L0 20" stroke="#fff" stroke-width="4"/><path d="M14 0v20M0 10h28" stroke="#fff" stroke-width="6"/><path d="M14 0v20M0 10h28" stroke="#c8102e" stroke-width="3"/></g><g fill="#cc142b" stroke="#fff" stroke-width=".7"><path d="M20 6l.5 1.3 1.3.1-1 .8.3 1.3-1.1-.7-1.1.7.3-1.3-1-.8 1.3-.1z"/><path d="M23 12l.4 1.1 1.1.1-.8.7.2 1.1-.9-.6-.9.6.2-1.1-.8-.7 1.1-.1z"/></g></svg>
